<svg xmlns="http://www.w3.org/2000/svg" viewBox="0 0 542.32 88.91"><defs><style>.cls-3{fill:#f47920;}</style></defs><g id="Layer_2" data-name="Layer 2"><g id="Layer_1-2" data-name="Layer 1"><polygon class="cls-3" points="278.76 51.98 278.41 51.98 238.78 1.78 204.49 1.78 204.49 86.68 233.96 86.68 233.96 37.49 234.3 37.49 272.35 86.68 308.23 86.68 308.23 1.78 278.76 1.78 278.76 51.98"></polygon><path class="cls-3" d="M95.82,57a20.64,20.64,0,0,0-3.59,1.32L77.34,86.68H109.5L120.42,63C117.18,61.33,106.83,53.86,95.82,57Z"></path><path class="cls-3" d="M157.11,65.43,167,86.68H199.1L180.68,50.63C176.81,58.82,165,65.09,157.11,65.43Z"></path><path class="cls-3" d="M176.49,42.93,154.13,1.78H122.3L98.13,47.48C106.67,42.9,116.07,46,127,49.91l11-24.59h.34L151.21,52.8a67.42,67.42,0,0,0,14.67-2.44A20.87,20.87,0,0,0,176.49,42.93Z"></path><path class="cls-3" d="M507.46,35.55C490,32.11,472.6,30.92,472.6,24.38c0-5.59,8.42-7.26,15.16-7.26,8.1,0,16.68,1.79,18.85,7a1,1,0,0,0,.44.5,1.08,1.08,0,0,0,.74,0c5.34-2.31,14.06-3.83,28.35-2.27a1.27,1.27,0,0,0,1-.28,1,1,0,0,0,.26-1c-4.77-14.71-26-21-47.11-21-22.57,0-49,7.26-49,25.8,0,15.58,18,21.05,35.19,24.49C493.82,53.74,511,55.17,511,62.66c0,6.31-9.77,8.68-19.2,8.68-13.31,0-22.06-3.21-22.74-13.2H437.74c.17,21.76,24.59,30.32,52.21,30.32,26.44,0,52.37-6.89,52.37-28.41C542.32,44.71,524.81,39,507.46,35.55Z"></path><polygon class="cls-3" points="103.07 1.78 0 1.78 0 25.91 35.87 25.91 35.87 86.68 67.2 86.68 67.2 25.91 103.07 25.91 103.07 1.78"></polygon><path class="cls-3" d="M429.54,40.31c-.2-.17-.55-.13-.94,0-2.16,1-6.62,4.06-20.17.06-8.9-2.63-19.7-5.73-26.57-4-2.9.72-2.85,4-2.88,4.51a115.67,115.67,0,0,0,.16,13.17c.46,3.8,8.5,4.55,13.4,3.48,3.83-.84,6.35-3.9,8.86-3.82,1.39.05,1.09,2.52.49,4.14C399,65.78,389.28,70.43,373.76,70c-20.28-.6-27.31-12.82-27.31-25.48s7.8-24.77,28.08-25.32c9.68-.26,22.81.76,24.61,8h30.18c-2.87-21.38-29.08-27-54.11-27C338.67.06,315,19.76,315,44.48s23.68,44.43,60.22,44.43c11.16,0,25.37-2.86,33.66-11.11l1.86,9.32h19s.22-40.57,0-46.14A1,1,0,0,0,429.54,40.31Z"></path></g></g></svg>